<svg xmlns="http://www.w3.org/2000/svg" width="505" height="44" viewBox="0 0 505 44">
  <g id="Group_390" data-name="Group 390" transform="translate(-708 -829)">
    <g id="Group_341" data-name="Group 341" transform="translate(-9 -9)">
      <path id="Union_1" data-name="Union 1" d="M1,67.5V26H6V67.5a2.5,2.5,0,0,1-5,0Z" transform="translate(1216 812)" fill="#efefef"/>
      <rect id="Rectangle_40" data-name="Rectangle 40" width="5" height="44" rx="2.5" transform="translate(758 838)" fill="#efefef"/>
      <rect id="Rectangle_58" data-name="Rectangle 58" width="5" height="44" rx="2.5" transform="translate(925 838)" fill="#efefef"/>
      <rect id="Rectangle_78" data-name="Rectangle 78" width="5" height="44" rx="2.5" transform="translate(1092 838)" fill="#efefef"/>
      <rect id="Rectangle_47" data-name="Rectangle 47" width="5" height="44" rx="2.5" transform="translate(841 838)" fill="#efefef"/>
      <rect id="Rectangle_56" data-name="Rectangle 56" width="5" height="44" rx="2.5" transform="translate(1008 838)" fill="#efefef"/>
      <rect id="Rectangle_76" data-name="Rectangle 76" width="5" height="44" rx="2.5" transform="translate(1175 838)" fill="#efefef"/>
      <rect id="Rectangle_41" data-name="Rectangle 41" width="5" height="44" rx="2.5" transform="translate(800 838)" fill="#efefef"/>
      <rect id="Rectangle_59" data-name="Rectangle 59" width="5" height="44" rx="2.5" transform="translate(967 838)" fill="#efefef"/>
      <rect id="Rectangle_79" data-name="Rectangle 79" width="5" height="44" rx="2.5" transform="translate(1134 838)" fill="#efefef"/>
      <rect id="Rectangle_46" data-name="Rectangle 46" width="5" height="44" rx="2.5" transform="translate(883 838)" fill="#efefef"/>
      <rect id="Rectangle_57" data-name="Rectangle 57" width="5" height="44" rx="2.5" transform="translate(1050 838)" fill="#efefef"/>
      <rect id="Rectangle_36" data-name="Rectangle 36" width="3" height="26" rx="1.5" transform="translate(726 838)" fill="#f4f4f4"/>
      <rect id="Rectangle_75" data-name="Rectangle 75" width="3" height="26" rx="1.5" transform="translate(893 838)" fill="#f4f4f4"/>
      <rect id="Rectangle_95" data-name="Rectangle 95" width="3" height="26" rx="1.5" transform="translate(1060 838)" fill="#f4f4f4"/>
      <rect id="Rectangle_55" data-name="Rectangle 55" width="3" height="26" rx="1.5" transform="translate(809 838)" fill="#f4f4f4"/>
      <rect id="Rectangle_60" data-name="Rectangle 60" width="3" height="26" rx="1.5" transform="translate(976 838)" fill="#f4f4f4"/>
      <rect id="Rectangle_80" data-name="Rectangle 80" width="3" height="26" rx="1.5" transform="translate(1143 838)" fill="#f4f4f4"/>
      <rect id="Rectangle_45" data-name="Rectangle 45" width="3" height="26" rx="1.5" transform="translate(768 838)" fill="#f4f4f4"/>
      <rect id="Rectangle_61" data-name="Rectangle 61" width="3" height="26" rx="1.5" transform="translate(935 838)" fill="#f4f4f4"/>
      <rect id="Rectangle_81" data-name="Rectangle 81" width="3" height="26" rx="1.5" transform="translate(1102 838)" fill="#f4f4f4"/>
      <rect id="Rectangle_48" data-name="Rectangle 48" width="3" height="26" rx="1.5" transform="translate(851 838)" fill="#f4f4f4"/>
      <rect id="Rectangle_62" data-name="Rectangle 62" width="3" height="26" rx="1.5" transform="translate(1018 838)" fill="#f4f4f4"/>
      <rect id="Rectangle_82" data-name="Rectangle 82" width="3" height="26" rx="1.5" transform="translate(1185 838)" fill="#f4f4f4"/>
      <rect id="Rectangle_37" data-name="Rectangle 37" width="3" height="26" rx="1.5" transform="translate(734 838)" fill="#f4f4f4"/>
      <rect id="Rectangle_63" data-name="Rectangle 63" width="3" height="26" rx="1.5" transform="translate(901 838)" fill="#f4f4f4"/>
      <rect id="Rectangle_83" data-name="Rectangle 83" width="3" height="26" rx="1.5" transform="translate(1068 838)" fill="#f4f4f4"/>
      <rect id="Rectangle_49" data-name="Rectangle 49" width="3" height="26" rx="1.5" transform="translate(817 838)" fill="#f4f4f4"/>
      <rect id="Rectangle_64" data-name="Rectangle 64" width="3" height="26" rx="1.5" transform="translate(984 838)" fill="#f4f4f4"/>
      <rect id="Rectangle_84" data-name="Rectangle 84" width="3" height="26" rx="1.5" transform="translate(1151 838)" fill="#f4f4f4"/>
      <rect id="Rectangle_44" data-name="Rectangle 44" width="3" height="26" rx="1.5" transform="translate(776 838)" fill="#f4f4f4"/>
      <rect id="Rectangle_65" data-name="Rectangle 65" width="3" height="26" rx="1.5" transform="translate(943 838)" fill="#f4f4f4"/>
      <rect id="Rectangle_85" data-name="Rectangle 85" width="3" height="26" rx="1.5" transform="translate(1110 838)" fill="#f4f4f4"/>
      <rect id="Rectangle_50" data-name="Rectangle 50" width="3" height="26" rx="1.5" transform="translate(859 838)" fill="#f4f4f4"/>
      <rect id="Rectangle_66" data-name="Rectangle 66" width="3" height="26" rx="1.5" transform="translate(1026 838)" fill="#f4f4f4"/>
      <rect id="Rectangle_86" data-name="Rectangle 86" width="3" height="26" rx="1.5" transform="translate(1193 838)" fill="#f4f4f4"/>
      <rect id="Rectangle_38" data-name="Rectangle 38" width="3" height="26" rx="1.5" transform="translate(742 838)" fill="#f4f4f4"/>
      <rect id="Rectangle_67" data-name="Rectangle 67" width="3" height="26" rx="1.5" transform="translate(909 838)" fill="#f4f4f4"/>
      <rect id="Rectangle_87" data-name="Rectangle 87" width="3" height="26" rx="1.5" transform="translate(1076 838)" fill="#f4f4f4"/>
      <rect id="Rectangle_51" data-name="Rectangle 51" width="3" height="26" rx="1.5" transform="translate(825 838)" fill="#f4f4f4"/>
      <rect id="Rectangle_68" data-name="Rectangle 68" width="3" height="26" rx="1.5" transform="translate(992 838)" fill="#f4f4f4"/>
      <rect id="Rectangle_88" data-name="Rectangle 88" width="3" height="26" rx="1.5" transform="translate(1159 838)" fill="#f4f4f4"/>
      <rect id="Rectangle_42" data-name="Rectangle 42" width="3" height="26" rx="1.5" transform="translate(784 838)" fill="#f4f4f4"/>
      <rect id="Rectangle_69" data-name="Rectangle 69" width="3" height="26" rx="1.5" transform="translate(951 838)" fill="#f4f4f4"/>
      <rect id="Rectangle_89" data-name="Rectangle 89" width="3" height="26" rx="1.5" transform="translate(1118 838)" fill="#f4f4f4"/>
      <rect id="Rectangle_52" data-name="Rectangle 52" width="3" height="26" rx="1.5" transform="translate(867 838)" fill="#f4f4f4"/>
      <rect id="Rectangle_70" data-name="Rectangle 70" width="3" height="26" rx="1.5" transform="translate(1034 838)" fill="#f4f4f4"/>
      <rect id="Rectangle_90" data-name="Rectangle 90" width="3" height="26" rx="1.5" transform="translate(1201 838)" fill="#f4f4f4"/>
      <rect id="Rectangle_39" data-name="Rectangle 39" width="3" height="26" rx="1.5" transform="translate(750 838)" fill="#f4f4f4"/>
      <rect id="Rectangle_71" data-name="Rectangle 71" width="3" height="26" rx="1.5" transform="translate(917 838)" fill="#f4f4f4"/>
      <rect id="Rectangle_91" data-name="Rectangle 91" width="3" height="26" rx="1.5" transform="translate(1084 838)" fill="#f4f4f4"/>
      <rect id="Rectangle_53" data-name="Rectangle 53" width="3" height="26" rx="1.5" transform="translate(833 838)" fill="#f4f4f4"/>
      <rect id="Rectangle_72" data-name="Rectangle 72" width="3" height="26" rx="1.5" transform="translate(1000 838)" fill="#f4f4f4"/>
      <rect id="Rectangle_92" data-name="Rectangle 92" width="3" height="26" rx="1.5" transform="translate(1167 838)" fill="#f4f4f4"/>
      <rect id="Rectangle_43" data-name="Rectangle 43" width="3" height="26" rx="1.5" transform="translate(792 838)" fill="#f4f4f4"/>
      <rect id="Rectangle_73" data-name="Rectangle 73" width="3" height="26" rx="1.5" transform="translate(959 838)" fill="#f4f4f4"/>
      <rect id="Rectangle_93" data-name="Rectangle 93" width="3" height="26" rx="1.5" transform="translate(1126 838)" fill="#f4f4f4"/>
      <rect id="Rectangle_54" data-name="Rectangle 54" width="3" height="26" rx="1.5" transform="translate(875 838)" fill="#f4f4f4"/>
      <rect id="Rectangle_74" data-name="Rectangle 74" width="3" height="26" rx="1.5" transform="translate(1042 838)" fill="#f4f4f4"/>
      <rect id="Rectangle_94" data-name="Rectangle 94" width="3" height="26" rx="1.5" transform="translate(1209 838)" fill="#f4f4f4"/>
      <path id="Union_2" data-name="Union 2" d="M1,67.5V26H6V67.5a2.5,2.5,0,0,1-5,0Z" transform="translate(716 812)" fill="#efefef"/>
    </g>
    <rect id="Rectangle_34" data-name="Rectangle 34" width="505" height="3" rx="1.5" transform="translate(708 829)" fill="#efefef"/>
  </g>
</svg>
