<svg xmlns="http://www.w3.org/2000/svg" width="15.433" height="49.358" viewBox="0 0 15.433 49.358"><g transform="translate(0 0)"><path d="M223.033,132.606a3.854,3.854,0,0,0-3.137-3.85c.38-5.641-.919-11.187-1.6-16.843a2.277,2.277,0,0,0-.127-.412h-5.8a2.791,2.791,0,0,0-.111.349c-.666,5.673-1.886,11.25-1.521,16.907a3.854,3.854,0,0,0-3.137,3.85v25.321a.954.954,0,0,0,.951.951h13.468a.953.953,0,0,0,.951-.951Z" transform="translate(-207.6 -109.519)" fill="#9ec853"/><path d="M225.192,143.782l-.982-1.22a55.129,55.129,0,0,0-.951-11.963c-.127-.856-.269-1.806-.4-2.6H218.6c-.111.792-.222,1.569-.333,2.361a58.414,58.414,0,0,0-.9,12.217l-1.03,1.22a2.758,2.758,0,0,0-2.234,2.694v25.241h13.31V146.491A2.764,2.764,0,0,0,225.192,143.782Z" transform="translate(-213.07 -123.405)" fill="#328452"/><path d="M238.487,107.877a1.069,1.069,0,0,1-1.077,1.077h-6.132a1.069,1.069,0,0,1-1.077-1.077h0a1.069,1.069,0,0,1,1.077-1.077h6.132a1.079,1.079,0,0,1,1.077,1.077Z" transform="translate(-226.619 -105.564)" fill="#9ec853"/><path d="M241.813,106.871a.879.879,0,0,1-.871.871h-5.07a.879.879,0,0,1-.871-.871h0a.879.879,0,0,1,.871-.871h5.07a.879.879,0,0,1,.871.871Z" transform="translate(-230.658 -104.891)" fill="#1d8251"/><path d="M236.083,100.743a1.1,1.1,0,0,0,.063-.412A1.319,1.319,0,0,0,234.863,99h-6.18a1.319,1.319,0,0,0-1.283,1.331c0,.127.016.412.063.412Z" transform="translate(-224.263 -99)" fill="#f7f7f8"/><path d="M233.7,264.713a5.275,5.275,0,0,1-5.276,5.276h-.048a5.275,5.275,0,0,1-5.276-5.276v-7.336a5.275,5.275,0,0,1,5.276-5.276h.048a5.275,5.275,0,0,1,5.276,5.276Z" transform="translate(-220.644 -227.841)" fill="#ffd071"/><path d="M234.961,276A3.963,3.963,0,0,1,231,272.034v-7.273a3.961,3.961,0,0,1,7.923,0v7.273A3.963,3.963,0,0,1,234.961,276Z" transform="translate(-227.292 -235.163)" fill="#6e3017"/></g></svg>