<svg xmlns="http://www.w3.org/2000/svg" width="40.306" height="55.737" viewBox="0 0 40.306 55.737"><g transform="translate(0 0)"><rect width="4.562" height="22.612" transform="translate(17.852 27.174)" fill="#b8b8b8"/><path d="M209.689,365.111h.238L194.911,359.2,179.9,365.111h.238a.688.688,0,0,0-.734.694.7.7,0,0,0,.734.694h29.535a.688.688,0,0,0,.734-.694A.672.672,0,0,0,209.689,365.111Z" transform="translate(-174.758 -310.762)" fill="#f7f7f8"/><path d="M186.467,115H165.858C160.9,121.347,156,128.984,156,134.478a20.153,20.153,0,1,0,40.306-.02C196.306,128.984,191.426,121.347,186.467,115Zm-10.315,36.616a17.176,17.176,0,0,1-17.138-17.177c0-2.1,1.111-6.962,8.311-16.483H184.98c7.22,9.521,8.311,14.381,8.311,16.483A17.163,17.163,0,0,1,176.153,151.616Z" transform="translate(-156 -115)" fill="#f7f7f8"/><path d="M197.165,130H179.511c-7.22,9.521-8.311,14.381-8.311,16.483a17.138,17.138,0,1,0,34.276,0C205.5,144.381,204.385,139.521,197.165,130Z" transform="translate(-168.185 -127.025)" fill="#f7f7f8" opacity="0.43"/><path d="M172.906,224.748a17.131,17.131,0,0,0,32.532.182C205.714,224.157,172.6,223.777,172.906,224.748Z" transform="translate(-169.057 -200.138)" fill="#ba1e1e"/></g><g transform="translate(25.26 4.965)"><path d="M288.295,144.589c-.853-1.369-1.765-2.678-2.717-3.967a1.239,1.239,0,0,0-1.627-.436,1.2,1.2,0,0,0-.436,1.626c.952,1.289,1.865,2.618,2.717,3.967.833,1.309,2.876.119,2.063-1.19Z" transform="translate(-283.345 -140.033)" fill="#f7f7f8"/></g><g transform="translate(24.617 14.916)"><path d="M281.868,207.138c5.276-3.253,8.767-9.957,6.883-16.106-.456-1.468-2.757-.833-2.3.635,1.587,5.137-1.389,10.711-5.792,13.428-1.289.793-.1,2.856,1.21,2.043Z" transform="translate(-280.103 -190.198)" fill="#f7f7f8"/></g></svg>