<svg xmlns="http://www.w3.org/2000/svg" width="35.927" height="33.223" viewBox="0 0 35.927 33.223"><g transform="translate(0 0)"><path d="M146,306l3.9,27.7c.5,3.091.265,5.524,6.645,5.524h15.259c5.636,0,6.1-2.4,6.567-5.524l3.554-27.7Z" transform="translate(-146 -306)" fill="#f7f7f8"/><path d="M155.6,313l3.091,19.663c.386,2.2,2.781,3.9,5.292,3.9h12.092a5.22,5.22,0,0,0,5.215-3.9L184.11,313Z" transform="translate(-151.891 -310.296)" fill="#de9400"/><path d="M159.4,330l1.7,12.362A5.633,5.633,0,0,0,166.392,347h12.092a5.552,5.552,0,0,0,5.215-4.636L185.244,330Z" transform="translate(-154.223 -320.729)" fill="#de9400"/></g><path d="M176.983,336.231,169.6,336l-2.7-26h10.083Z" transform="translate(-158.826 -308.455)" fill="#f7f7f8" opacity="0.43"/></svg>