<svg xmlns="http://www.w3.org/2000/svg" width="24.073" height="50.863" viewBox="0 0 24.073 50.863"><g transform="translate(0 0)"><path d="M209.815,186.8a22.687,22.687,0,0,0,1.685-8.793c0-.652-.032-1.272-.08-1.908H191.88c-.048.636-.079,1.256-.079,1.908a22.31,22.31,0,0,0,1.908,9.3c1.224,5.2.6,21.194-.477,25.36h16.854l-.048-.143C208.813,208.265,208.416,191.38,209.815,186.8Z" transform="translate(-189.717 -163.38)" fill="#f7f7f8"/><path d="M204.581,220.071c.859-6.105,1.24-19.1.08-24.024l-.111-.334a20.556,20.556,0,0,1-1.749-8.554V187H219v.159a21.194,21.194,0,0,1-1.542,8.125l-.064.159c-1.3,4.261-1.161,18.237-.207,24.613H204.581Z" transform="translate(-198.968 -172.547)" fill="#e1902b"/><g transform="translate(8.173 21.624)"><ellipse cx="1.081" cy="1.081" rx="1.081" ry="1.081" transform="translate(3.021)" fill="#ffcf57"/><ellipse cx="1.526" cy="1.526" rx="1.526" ry="1.526" transform="translate(0.366 5.565)" fill="#ffcf57"/><ellipse cx="1.256" cy="1.256" rx="1.256" ry="1.256" transform="translate(7.25 0.859)" fill="#ffcf57"/><ellipse cx="0.954" cy="0.954" rx="0.954" ry="0.954" transform="translate(0 12.624)" fill="#ffcf57"/><ellipse cx="1.018" cy="1.018" rx="1.018" ry="1.018" transform="translate(5.692 13.976)" fill="#ffcf57"/><ellipse cx="1.685" cy="1.685" rx="1.685" ry="1.685" transform="translate(4.055 9.476)" fill="#ffcf57"/></g><path d="M252.322,180.3H247.6v34.359h4.722Z" transform="translate(-236.645 -166.912)" fill="#ffdc85" opacity="0.53"/><g transform="translate(2.115 13.292)"><path d="M193.844,183.707c-.064-.684-.1-1.367-.1-2.067v-.191h16.2v.191a21.849,21.849,0,0,1-.207,3.085c.191.016.4.032.588.032a5.788,5.788,0,0,0,1.177-.111,26.324,26.324,0,0,0,.175-3.005c0-.652-.032-1.3-.079-1.94H192.08c-.048.636-.08,1.288-.08,1.94,0,.7.032,1.383.08,2.051a4.276,4.276,0,0,0,.906.1A3.032,3.032,0,0,0,193.844,183.707Z" transform="translate(-192 -179.7)" fill="#b8b8b8"/><path d="M219.2,190.7H203v.191c0,.7.032,1.383.1,2.067a4.143,4.143,0,0,0,1.32-.509v4.388a2.022,2.022,0,0,0,2.019,2.019h.016a2.022,2.022,0,0,0,2.019-2.019v-4.484a5.009,5.009,0,0,0,6.551-.254,6.329,6.329,0,0,0,3.991,1.876,24.514,24.514,0,0,0,.207-3.085A.713.713,0,0,1,219.2,190.7Z" transform="translate(-201.251 -188.951)" fill="#cc6b27"/></g><path d="M197.287,102.269a4.709,4.709,0,0,0-.827.064,4.478,4.478,0,0,0,.238-1.463,4.926,4.926,0,0,0-9.763-.763,4.825,4.825,0,0,0-2.608-.763,4.687,4.687,0,0,0-4.754,4.611,4.406,4.406,0,0,0,.429,1.892,3.5,3.5,0,0,0-1.3,2.7,3.571,3.571,0,0,0,3.625,3.514,3.766,3.766,0,0,0,1.876-.509v3.784a1.737,1.737,0,0,0,1.733,1.733h.016a1.737,1.737,0,0,0,1.733-1.733v-3.88a4.328,4.328,0,0,0,5.66-.207,5.521,5.521,0,0,0,3.959,1.638,5.313,5.313,0,1,0-.016-10.621Z" transform="translate(-178.7 -96.1)" fill="#f7f7f8"/></g><path d="M212.921,399.431a1.425,1.425,0,0,1-1.431,1.431H195.431A1.425,1.425,0,0,1,194,399.431h0A1.425,1.425,0,0,1,195.431,398H211.49a1.425,1.425,0,0,1,1.431,1.431Z" transform="translate(-191.567 -349.999)" fill="#f7f7f8"/></svg>