<svg xmlns="http://www.w3.org/2000/svg" width="58.473" height="46.395" viewBox="0 0 58.473 46.395"><g transform="translate(41.219 21.664)"><g transform="translate(0 3.643)"><path d="M325.369,264a5.867,5.867,0,0,1,5.886,5.847v2.013H328v-2.013a2.562,2.562,0,0,0-2.626-2.588H314V264Z" transform="translate(-314 -264)" fill="#f7f7f8"/><g transform="translate(13.995 5.176)"><path d="M390.259,291v3.432a.594.594,0,0,1-.575.594h-2.032a.65.65,0,0,1-.652-.594V291Z" transform="translate(-387 -291)" fill="#f7f7f8"/></g></g><path d="M359.6,245.441a.434.434,0,0,0-.441-.441h-1.821a.434.434,0,0,0-.441.441v4.889a.434.434,0,0,0,.441.441h1.821a.434.434,0,0,0,.441-.441Z" transform="translate(-348.675 -245)" fill="#f7f7f8"/></g><g transform="translate(2.243 33.874)"><path d="M289.115,321.213l-4.429-9.547a2.093,2.093,0,0,1,3.8-1.764l5.042,10.908a1.656,1.656,0,0,1,.134.4Z" transform="translate(-251.174 -308.693)" fill="#6e3017"/><path d="M115.244,321.213l4.429-9.547a2.093,2.093,0,0,0-3.8-1.764l-5.042,10.908a1.657,1.657,0,0,0-.134.4Z" transform="translate(-110.7 -308.693)" fill="#6e3017"/></g><path d="M177.886,137.943H180.7l.939-5.943H177.1Z" transform="translate(-162.127 -132)" fill="#3d2a3d"/><g transform="translate(0 3.623)"><g transform="translate(0 0.038)"><path d="M146.546,161.817v-7.362a83.707,83.707,0,0,0-24.386-3.355A85.066,85.066,0,0,0,99,154.072v7.745Z" transform="translate(-99 -151.1)" fill="#9c4421"/><path d="M146.546,196.978v-7.323a83.707,83.707,0,0,0-24.386-3.355A85.064,85.064,0,0,0,99,189.272v7.707Z" transform="translate(-99 -179.552)" fill="#c25f35"/><path d="M146.546,291v7.266a83.708,83.708,0,0,1-24.386,3.355A85.067,85.067,0,0,1,99,298.649V291Z" transform="translate(-99 -264.179)" fill="#6e3017"/><path d="M146.546,255v7.438a83.706,83.706,0,0,1-24.386,3.355A85.066,85.066,0,0,1,99,262.822V255Z" transform="translate(-99 -235.081)" fill="#c25f35"/><path d="M146.546,226.647v4.87a129.609,129.609,0,0,1-24.386,2.109A130.888,130.888,0,0,1,99,231.747v-5.368a132.723,132.723,0,0,1,23.159-1.879A132.606,132.606,0,0,1,146.546,226.647Z" transform="translate(-99 -210.428)" fill="#9c4421"/></g><path d="M301.368,187.9c-1.725.4-3.451.748-5.368,1.016V150.9c1.917.268,3.643.613,5.368,1.016Z" transform="translate(-258.232 -150.9)" fill="#3d2a3d"/><path d="M121,188.024V152.116c1.725-.4,3.451-.748,5.176-1.016v37.94C124.451,188.772,122.725,188.427,121,188.024Z" transform="translate(-116.782 -151.062)" fill="#3d2a3d"/></g></svg>